# xmcd
#
# Track frame offsets:
#   200
#   13812
#   29360
#   48955
#   63992
#   85935
#   99867
#   112857
#   129587
#   143102
#
# Disc length: 2139 seconds
#
# Revision: 3
# Processed by: cddbd v1.4PL0 Copyright (c) Steve Scherf et al.
# Submitted via: Media_Universe 3.0
#
DISCID=7908590a
DTITLE=Brooks and Dunn - Waitin' On Sundown
DYEAR=1994
DGENRE=Country
TTITLE0=Litle Miss Honky Tonk
TTITLE1=She's Not The Cheatin' Kind
TTITLE2=Silver And Gold
TTITLE3=I'll Never Forgive My Heart
TTITLE4=You're Gonna Miss Me When I'm Gone
TTITLE5=My Kind Of Crazy
TTITLE6=Whiskey Under The Bridge
TTITLE7=If That's The Way You Want It
TTITLE8=She's the Kind Of Trouble
TTITLE9=A Few Good Rides Away
EXTD=YEAR: 1994 ID3G: 2
EXTT0=
EXTT1=
EXTT2=
EXTT3=
EXTT4=
EXTT5=
EXTT6=
EXTT7=
EXTT8=
EXTT9=
PLAYORDER=
